# Blender v2.79 (sub 0) OBJ File: 'planesquare.blend'
# www.blender.org
o Plane
v -1.000000 0.000000 1.000000
v 1.000000 0.000000 1.000000
v -1.000000 0.000000 -1.000000
v 1.000000 0.000000 -1.000000
v -0.550491 0.000000 -0.550491
v -0.550491 0.000000 0.550491
v 0.550491 0.000000 0.550491
v 0.550491 0.000000 -0.550491
v -0.550491 0.106410 -0.550491
v -0.550491 0.106410 0.550491
v 0.550491 0.106410 0.550491
v 0.550491 0.106410 -0.550491
vn 1.0000 0.0000 0.0000
vn 0.0000 1.0000 0.0000
vn -1.0000 0.0000 0.0000
vn 0.0000 0.0000 -1.0000
vn 0.0000 0.0000 1.0000
s off
f 8//1 11//1 7//1
f 5//2 1//2 6//2
f 6//2 2//2 7//2
f 7//2 4//2 8//2
f 8//2 3//2 5//2
f 11//2 9//2 10//2
f 6//3 9//3 5//3
f 5//4 12//4 8//4
f 7//5 10//5 6//5
f 8//1 12//1 11//1
f 5//2 3//2 1//2
f 6//2 1//2 2//2
f 7//2 2//2 4//2
f 8//2 4//2 3//2
f 11//2 12//2 9//2
f 6//3 10//3 9//3
f 5//4 9//4 12//4
f 7//5 11//5 10//5
