# Blender v2.79 (sub 0) OBJ File: 'playerspaceship.blend'
# www.blender.org
o Wing.002_Cylinder.003
v 0.081595 0.044060 -4.878174
v 0.447852 0.232835 -1.403879
v 0.017547 0.007915 -4.876236
v -0.027939 -0.025048 -3.456214
v 0.537686 0.270106 1.205005
v 0.346555 0.155378 2.545927
v 0.504894 0.247182 2.065248
v 0.203737 0.075116 2.484779
v 0.108449 0.024035 1.963764
v 0.530415 -12.570943 -8.961569
v 0.657682 -12.724957 -7.788040
v 0.509485 -12.571771 -8.961035
v 0.497712 -12.636964 -8.481754
v 0.692725 -12.842741 -6.907174
v 0.633180 -12.906010 -6.454870
v 0.683881 -12.882296 -6.616838
v 0.586372 -12.904867 -6.475781
v 0.554094 -12.882237 -6.651842
v 1.845863 -3.063017 2.471875
v 2.818536 -5.605603 1.745658
v 3.107869 -8.281605 0.421166
v 2.307236 -10.914242 -1.689825
v 2.105595 -2.916776 2.529483
v 3.116636 -5.464323 1.798311
v 3.327289 -8.209710 0.470422
v 2.422865 -10.896815 -1.646929
v 1.546183 -3.201559 -3.467060
v 2.336470 -5.392898 -3.825292
v 2.644525 -7.787050 -4.607203
v 2.039098 -10.473773 -5.862823
v 2.372967 -2.745596 -1.425350
v 3.329098 -5.062067 -1.913996
v 3.409493 -7.740932 -2.877179
v 2.449806 -10.564054 -4.421400
v 2.107523 -10.342554 -6.861682
v 2.785800 -7.578231 -5.813666
v 2.565476 -5.173437 -5.164190
v 1.775972 -3.064587 -4.892661
v 2.223465 -10.887337 -2.055761
v 2.952647 -8.279336 -0.018478
v 2.619767 -5.663539 1.259598
v 1.682573 -3.152476 1.952919
v 2.543495 -10.833489 -1.984630
v 3.560467 -8.072615 0.060431
v 3.447272 -5.266201 1.341662
v 2.404972 -2.745378 2.044534
v 2.056070 -10.352724 -6.860295
v 2.687934 -7.613543 -5.810884
v 2.431783 -5.239015 -5.160232
v 1.658882 -3.130666 -4.889116
v 2.482815 -2.697031 1.182928
v 3.515947 -5.167633 0.532787
v 3.594772 -7.964632 -0.668846
v 2.557987 -10.759338 -2.588896
v 1.298503 -12.273729 -4.499167
v 1.349408 -12.299718 -4.228449
v 1.496252 -12.260622 -4.445394
v 1.420815 -12.296442 -4.196313
v 1.506709 -12.208570 -4.891850
v 1.193883 -11.962253 -7.313016
v 1.206845 -11.876742 -8.050014
v 1.444329 -12.059805 -6.246351
v 1.238669 -11.873547 -8.050845
vn -0.4914 0.8709 0.0045
vn 0.7941 -0.5886 -0.1513
vn 0.7103 -0.7009 -0.0651
vn 0.8993 -0.4057 -0.1630
vn -0.8949 0.4370 0.0908
vn 0.6958 -0.7088 0.1156
vn -0.1500 0.6582 -0.7378
vn -0.0537 -0.8663 0.4967
vn 0.8118 0.4629 0.3558
vn -0.1486 0.2451 -0.9580
vn -0.0252 -0.0090 -0.9996
vn 0.0457 -0.4321 0.9007
vn -0.3013 -0.1775 0.9368
vn 0.9964 0.0015 0.0848
vn 0.8325 -0.1882 0.5211
vn 0.8121 -0.5044 0.2932
vn -0.8957 -0.4439 0.0266
vn -0.9341 -0.3560 0.0267
vn -0.9878 -0.1487 0.0471
vn -0.9750 0.2043 0.0874
vn -0.9752 0.2213 -0.0033
vn -0.9915 -0.1007 -0.0824
vn -0.9415 -0.3247 -0.0908
vn -0.8855 -0.4629 -0.0391
vn 0.9540 -0.2795 -0.1084
vn 0.9955 0.0596 -0.0735
vn -0.8672 -0.4546 0.2032
vn -0.8430 -0.4189 0.3375
vn -0.8738 -0.2883 0.3917
vn -0.9427 0.0197 0.3329
vn 0.8434 0.5352 0.0464
vn 0.9290 0.3552 0.1039
vn 0.9172 0.3957 -0.0460
vn 0.8392 0.5427 -0.0366
vn 0.8415 -0.5384 -0.0459
vn -0.9457 0.2266 0.2331
vn -0.8855 0.4628 0.0411
vn 0.8753 -0.4728 -0.1021
vn 0.5355 -0.8435 0.0409
vn -0.0855 -0.9540 0.2873
vn -0.7475 0.6612 0.0636
vn 0.0356 -0.9904 -0.1338
vn 0.9665 0.1120 -0.2309
vn 0.8717 0.4757 -0.1177
vn 0.8130 0.1622 0.5592
vn -0.1646 0.3847 -0.9082
vn -0.0843 0.0961 -0.9918
vn 0.0296 -0.6248 0.7803
vn -0.0470 -0.2928 0.9550
vn 0.9399 -0.3415 -0.0064
vn -0.7830 0.6143 0.0971
vn -0.0974 0.8253 -0.5562
vn 0.7603 -0.6409 -0.1054
vn -0.9039 0.3749 0.2060
vn 0.9545 -0.2073 -0.2142
vn 0.8924 0.4087 -0.1913
vn 0.7908 -0.5900 -0.1632
vn 0.7183 -0.6919 -0.0724
vn 0.9046 -0.4011 -0.1445
vn -0.8986 0.4312 0.0811
vn 0.7005 -0.7050 0.1108
vn -0.0844 0.6419 -0.7621
vn -0.1989 -0.8267 0.5263
vn 0.6899 0.4340 0.5793
vn -0.1177 0.2506 -0.9609
vn -0.0251 -0.0091 -0.9996
vn -0.0537 -0.4476 0.8926
vn -0.1665 -0.0911 0.9818
vn 0.9988 0.0075 0.0481
vn 0.8800 -0.1674 0.4445
vn 0.8535 -0.4743 0.2159
vn -0.9384 -0.3440 0.0340
vn -0.9883 -0.1438 0.0509
vn -0.9796 0.1890 0.0680
vn -0.9752 0.2210 0.0102
vn -0.9944 -0.0937 -0.0494
vn -0.9380 -0.3304 -0.1051
vn -0.8923 -0.4419 -0.0927
vn 0.9567 -0.2781 -0.0861
vn 0.9953 0.0578 -0.0777
vn -0.8241 -0.4142 0.3864
vn -0.9080 -0.2715 0.3192
vn -0.9691 0.0924 0.2286
vn 0.8320 0.5446 0.1057
vn 0.9267 0.3554 0.1220
vn 0.9190 0.3906 -0.0533
vn 0.8353 0.5479 -0.0454
vn 0.8402 -0.5406 -0.0433
vn -0.9412 0.2703 0.2029
vn -0.8853 0.4635 0.0382
vn 0.8749 -0.4753 -0.0925
vn 0.5324 -0.8454 0.0429
vn -0.1600 -0.9382 0.3070
vn -0.7492 0.6585 0.0712
vn 0.0356 -0.9904 -0.1339
vn 0.0357 -0.9904 -0.1338
vn 0.9698 0.1424 -0.1981
vn 0.8238 0.5338 -0.1909
vn 0.7703 0.1454 0.6208
vn -0.0991 0.3759 -0.9214
vn -0.0779 0.0990 -0.9920
vn -0.2079 -0.5727 0.7930
vn -0.0334 -0.2863 0.9576
vn 0.9415 -0.3364 -0.0187
vn -0.7786 0.6183 0.1069
vn -0.0470 0.8112 -0.5829
vn 0.7634 -0.6355 -0.1153
vn -0.9087 0.3591 0.2127
vn 0.9716 -0.1805 -0.1527
vn 0.9027 0.3669 -0.2247
s off
f 2//1 9//1 5//1
f 11//2 63//2 62//2
f 16//3 59//3 57//3
f 62//4 35//4 34//4
f 30//5 55//5 39//5
f 58//6 43//6 26//6
f 63//7 47//7 35//7
f 22//8 58//8 26//8
f 23//9 7//9 6//9
f 36//10 49//10 37//10
f 38//11 3//11 1//11
f 20//12 25//12 24//12
f 8//13 23//13 6//13
f 44//14 52//14 45//14
f 25//15 45//15 24//15
f 26//16 44//16 25//16
f 27//17 9//17 4//17
f 27//18 41//18 42//18
f 28//19 40//19 41//19
f 29//20 39//20 40//20
f 48//21 30//21 29//21
f 49//22 29//22 28//22
f 50//23 28//23 27//23
f 50//24 4//24 3//24
f 54//25 33//25 53//25
f 53//26 32//26 52//26
f 9//27 19//27 8//27
f 42//28 20//28 19//28
f 41//29 21//29 20//29
f 40//30 22//30 21//30
f 46//31 5//31 7//31
f 45//32 51//32 46//32
f 52//33 31//33 51//33
f 5//34 31//34 2//34
f 57//35 54//35 43//35
f 39//36 56//36 22//36
f 47//37 60//37 30//37
f 59//38 34//38 54//38
f 15//39 57//39 58//39
f 56//40 15//40 58//40
f 61//41 13//41 60//41
f 18//42 13//42 11//42
f 33//43 37//43 32//43
f 2//44 38//44 1//44
f 24//45 46//45 23//45
f 35//46 48//46 36//46
f 37//47 50//47 38//47
f 21//48 26//48 25//48
f 19//49 24//49 23//49
f 43//50 53//50 44//50
f 60//51 18//51 55//51
f 10//52 61//52 63//52
f 14//53 62//53 59//53
f 55//54 17//54 56//54
f 34//55 36//55 33//55
f 32//56 38//56 31//56
f 7//1 5//1 9//1
f 2//1 1//1 4//1
f 3//1 4//1 1//1
f 9//1 8//1 7//1
f 6//1 7//1 8//1
f 2//1 4//1 9//1
f 11//57 10//57 63//57
f 16//58 14//58 59//58
f 62//59 63//59 35//59
f 30//60 60//60 55//60
f 58//61 57//61 43//61
f 63//62 61//62 47//62
f 22//63 56//63 58//63
f 23//64 46//64 7//64
f 36//65 48//65 49//65
f 38//66 50//66 3//66
f 20//67 21//67 25//67
f 8//68 19//68 23//68
f 44//69 53//69 52//69
f 25//70 44//70 45//70
f 26//71 43//71 44//71
f 27//17 42//17 9//17
f 27//72 28//72 41//72
f 28//73 29//73 40//73
f 29//74 30//74 39//74
f 48//75 47//75 30//75
f 49//76 48//76 29//76
f 50//77 49//77 28//77
f 50//78 27//78 4//78
f 54//79 34//79 33//79
f 53//80 33//80 32//80
f 9//28 42//28 19//28
f 42//81 41//81 20//81
f 41//82 40//82 21//82
f 40//83 39//83 22//83
f 46//84 51//84 5//84
f 45//85 52//85 51//85
f 52//86 32//86 31//86
f 5//87 51//87 31//87
f 57//88 59//88 54//88
f 39//89 55//89 56//89
f 47//90 61//90 60//90
f 59//91 62//91 34//91
f 15//92 16//92 57//92
f 56//93 17//93 15//93
f 61//94 12//94 13//94
f 11//42 14//42 18//42
f 16//95 15//95 17//95
f 17//96 18//96 16//96
f 13//96 12//96 10//96
f 10//42 11//42 13//42
f 16//96 18//96 14//96
f 33//97 36//97 37//97
f 2//98 31//98 38//98
f 24//99 45//99 46//99
f 35//100 47//100 48//100
f 37//101 49//101 50//101
f 21//102 22//102 26//102
f 19//103 20//103 24//103
f 43//104 54//104 53//104
f 60//105 13//105 18//105
f 10//106 12//106 61//106
f 14//107 11//107 62//107
f 55//108 18//108 17//108
f 34//109 35//109 36//109
f 32//110 37//110 38//110
