# Blender v2.79 (sub 0) OBJ File: 'playerspaceship.blend'
# www.blender.org
o CockpitGlas.001_Cube.002
v 0.878317 0.000636 0.047045
v 1.743477 -1.021933 1.338165
v 0.403841 -0.176634 2.090067
v 0.741120 -0.939494 3.997219
v 0.492209 -0.201249 2.067661
v 0.814737 -0.930746 3.891403
v 0.800000 -0.958064 4.043643
v 0.501819 -0.181589 1.960404
v 1.752061 -1.001600 1.231505
v 0.405145 -0.153324 1.993868
v 0.798780 0.037195 -0.006582
v 1.818499 -1.058064 1.243643
v 0.446301 -0.158064 2.043643
v 0.859524 0.041936 -0.056357
v 0.383095 -0.234867 2.075619
v 0.720375 -0.997728 3.982771
v 0.793992 -0.988979 3.876955
v 0.471464 -0.259483 2.053213
v 1.722731 -1.080166 1.323717
v 0.481074 -0.239822 1.945956
v 0.857571 -0.057597 0.032597
v 1.731315 -1.059833 1.217057
v 0.384399 -0.211557 1.979420
v 0.778034 -0.021038 -0.021030
v 0.426240 -0.217012 2.018368
v 0.839173 -0.024606 -0.056357
v 1.818499 -1.080166 1.243643
v 0.800000 -0.988979 4.043643
v 0.763480 -0.993353 3.944892
v 1.740260 -1.070000 1.267022
v 1.738231 -1.040422 1.221873
v 1.745146 -1.021011 1.226689
v 0.871402 -0.018775 0.042229
v 0.864486 -0.038186 0.037413
v 0.487989 -0.220411 1.950772
v 0.494904 -0.201000 1.955588
v 0.727290 -0.978317 3.987587
v 0.734205 -0.958906 3.992403
v 0.391314 -0.192146 1.984236
v 0.398229 -0.172735 1.989052
v 0.390011 -0.215456 2.080435
v 0.396926 -0.196045 2.085251
v 0.791864 0.017784 -0.011398
v 0.784949 -0.001627 -0.016214
v 0.485294 -0.220661 2.062845
v 0.478379 -0.240072 2.058029
v 0.800907 -0.969568 3.881771
v 0.807822 -0.950157 3.886587
v 1.729646 -1.060755 1.328533
v 1.736561 -1.041344 1.333349
v -0.878317 0.000636 0.047045
v -1.743477 -1.021933 1.338165
v -0.403841 -0.176634 2.090067
v -0.741120 -0.939494 3.997219
v -0.492209 -0.201249 2.067661
v -0.814737 -0.930746 3.891403
v -0.800000 -0.958064 4.043643
v -0.501819 -0.181589 1.960404
v -1.752061 -1.001600 1.231505
v -0.405145 -0.153324 1.993868
v -0.798780 0.037195 -0.006582
v -1.818499 -1.058064 1.243643
v -0.446301 -0.158064 2.043643
v -0.859524 0.041936 -0.056357
v -0.383095 -0.234867 2.075619
v -0.720375 -0.997728 3.982771
v -0.793992 -0.988979 3.876955
v -0.471464 -0.259483 2.053213
v -1.722731 -1.080166 1.323717
v -0.481074 -0.239822 1.945956
v -0.857571 -0.057597 0.032597
v -1.731315 -1.059833 1.217057
v -0.384399 -0.211557 1.979420
v -0.778034 -0.021038 -0.021030
v -0.426240 -0.217012 2.018368
v -0.839173 -0.024606 -0.056357
v -1.818499 -1.080166 1.243643
v -0.800000 -0.988979 4.043643
v -0.763480 -0.993353 3.944892
v -1.740260 -1.070000 1.267022
v -1.738231 -1.040422 1.221873
v -1.745146 -1.021011 1.226689
v -0.871402 -0.018775 0.042229
v -0.864486 -0.038186 0.037413
v -0.487989 -0.220411 1.950772
v -0.494904 -0.201000 1.955588
v -0.727290 -0.978317 3.987587
v -0.734205 -0.958906 3.992403
v 0.000000 -0.192146 1.984236
v -0.391314 -0.192146 1.984236
v -0.398229 -0.172735 1.989052
v -0.390011 -0.215456 2.080435
v -0.396926 -0.196045 2.085251
v 0.000000 -0.215456 2.080435
v -0.791864 0.017784 -0.011398
v -0.784949 -0.001627 -0.016214
v 0.000000 -0.001627 -0.016214
v -0.485294 -0.220661 2.062845
v -0.478379 -0.240072 2.058029
v -0.800907 -0.969568 3.881771
v -0.807822 -0.950157 3.886587
v -1.729646 -1.060755 1.328533
v -1.736561 -1.041344 1.333349
vn -0.3044 0.3301 -0.8935
vn -0.9198 0.3640 -0.1463
vn 0.0000 -0.9285 -0.3714
vn 0.0000 0.9285 0.3714
vn 0.0000 0.9955 0.0948
vn 0.6153 0.7634 0.1965
vn 0.6145 0.7647 0.1938
vn 0.0000 0.2408 -0.9706
vn -0.1246 -0.9854 -0.1162
vn -0.5555 -0.8105 -0.1857
vn -0.8615 0.3881 -0.3273
vn -0.7542 0.1080 0.6477
vn 0.9264 -0.2633 -0.2691
vn 0.0000 -0.2408 0.9706
vn -0.9264 0.2633 0.2691
vn 0.3044 -0.3301 0.8935
vn 0.9198 -0.3640 0.1463
vn 0.0000 -0.9949 0.1005
vn 0.0000 -0.9547 -0.2977
vn 0.0000 0.0000 1.0000
vn 0.9398 0.0000 0.3418
vn -0.0812 -0.9967 0.0029
vn 0.0000 -0.9898 0.1423
vn 0.0000 0.0000 -1.0000
vn 0.1054 -0.9944 0.0051
vn -0.5762 -0.7889 -0.2136
vn -0.1994 -0.9215 -0.3333
vn 0.1316 -0.9913 -0.0047
vn 0.6923 -0.2117 -0.6898
vn -0.6203 -0.7685 -0.1567
vn -0.1757 -0.9704 -0.1660
vn -0.1929 -0.9537 -0.2307
vn -0.5730 -0.8171 -0.0637
vn -0.6435 -0.6937 -0.3234
vn -0.8615 0.3881 -0.3272
vn 0.0000 -0.9903 -0.1387
vn 0.0000 -0.9955 -0.0948
vn -0.6153 -0.7634 -0.1965
vn -0.6145 -0.7647 -0.1938
vn 0.3044 0.3301 -0.8935
vn 0.9198 0.3640 -0.1463
vn -0.6153 0.7634 0.1965
vn -0.6145 0.7647 0.1938
vn 0.1246 -0.9854 -0.1162
vn 0.5799 -0.7923 -0.1896
vn 0.8616 0.3881 -0.3272
vn 0.7542 0.1080 0.6477
vn -0.9264 -0.2633 -0.2691
vn 0.9264 0.2633 0.2691
vn -0.3044 -0.3301 0.8935
vn -0.9198 -0.3640 0.1463
vn -0.9398 0.0000 0.3418
vn -0.0428 -0.9978 0.0512
vn -0.1054 -0.9944 0.0051
vn 0.4603 -0.8485 -0.2613
vn 0.0912 -0.9291 -0.3584
vn -0.1316 -0.9913 -0.0047
vn -0.7987 0.0000 -0.6017
vn 0.6203 -0.7685 -0.1567
vn 0.1757 -0.9704 -0.1660
vn 0.1929 -0.9537 -0.2307
vn 0.5730 -0.8171 -0.0637
vn 0.6435 -0.6937 -0.3234
vn 0.8616 0.3881 -0.3273
vn 0.8615 0.3881 -0.3272
vn 0.6153 -0.7634 -0.1965
vn 0.6145 -0.7647 -0.1938
vn -0.0351 -0.9942 -0.1016
vn -0.5799 -0.7923 -0.1896
vn -0.8616 0.3881 -0.3272
vn 0.0428 -0.9978 0.0512
vn -0.4603 -0.8485 -0.2613
vn -0.0912 -0.9291 -0.3584
vn 0.7987 0.0000 -0.6017
vn 0.0241 -0.7543 -0.6561
vn -0.6198 -0.7493 -0.2333
vn -0.6027 -0.7800 -0.1685
vn -0.8616 0.3881 -0.3273
vn 0.0351 -0.9942 -0.1016
vn 0.5555 -0.8105 -0.1857
vn 0.8615 0.3881 -0.3273
vn 0.0812 -0.9967 0.0029
vn 0.5762 -0.7889 -0.2136
vn 0.1994 -0.9215 -0.3333
vn -0.6923 -0.2117 -0.6898
vn -0.0241 -0.7543 -0.6561
vn 0.6198 -0.7493 -0.2333
vn 0.6027 -0.7800 -0.1685
s off
f 31//1 20//1 35//1
f 44//2 23//2 39//2
f 94//3 37//3 87//3
f 57//4 4//4 54//4
f 63//5 10//5 60//5
f 4//4 13//4 3//4
f 6//6 13//6 7//6
f 6//6 12//6 2//6
f 2//6 13//6 5//6
f 1//7 13//7 8//7
f 1//7 12//7 14//7
f 8//7 12//7 9//7
f 64//5 11//5 14//5
f 87//8 16//8 66//8
f 11//5 13//5 14//5
f 25//9 24//9 26//9
f 21//10 25//10 26//10
f 49//11 17//11 47//11
f 21//12 31//12 34//12
f 47//13 18//13 46//13
f 10//8 91//8 60//8
f 97//14 24//14 44//14
f 53//14 42//14 3//14
f 15//15 37//15 41//15
f 18//16 49//16 46//16
f 20//17 34//17 35//17
f 26//18 74//18 76//18
f 25//19 65//19 75//19
f 57//20 28//20 7//20
f 28//21 12//21 7//21
f 17//22 27//22 28//22
f 78//23 16//23 28//23
f 76//24 14//24 26//24
f 28//25 16//25 29//25
f 17//26 25//26 18//26
f 15//27 29//27 16//27
f 17//28 28//28 29//28
f 12//29 26//29 14//29
f 88//8 4//8 38//8
f 27//30 21//30 26//30
f 22//31 27//31 30//31
f 27//32 19//32 30//32
f 30//33 20//33 22//33
f 18//34 30//34 19//34
f 36//17 1//17 8//17
f 35//17 33//17 36//17
f 45//16 2//16 5//16
f 46//16 50//16 45//16
f 42//15 4//15 3//15
f 41//15 38//15 42//15
f 15//14 41//14 94//14
f 95//14 97//14 43//14
f 61//14 43//14 11//14
f 40//8 89//8 91//8
f 89//8 23//8 73//8
f 6//13 45//13 5//13
f 48//13 46//13 45//13
f 33//12 9//12 1//12
f 34//12 32//12 33//12
f 2//35 48//35 6//35
f 50//11 47//11 48//11
f 23//36 75//36 73//36
f 88//8 37//8 87//8
f 11//2 40//2 10//2
f 43//2 39//2 40//2
f 9//1 36//1 8//1
f 32//1 35//1 36//1
f 93//4 38//4 42//4
f 97//37 39//37 89//37
f 46//38 49//38 47//38
f 48//6 50//6 45//6
f 35//39 34//39 31//39
f 32//7 33//7 36//7
f 91//5 43//5 95//5
f 94//14 41//14 42//14
f 81//40 70//40 72//40
f 96//41 73//41 74//41
f 63//4 54//4 53//4
f 56//42 63//42 55//42
f 62//42 56//42 52//42
f 63//42 52//42 55//42
f 63//43 51//43 58//43
f 51//43 62//43 59//43
f 62//43 58//43 59//43
f 61//5 63//5 60//5
f 74//44 75//44 76//44
f 71//45 75//45 70//45
f 102//46 67//46 69//46
f 81//47 71//47 84//47
f 100//48 68//48 67//48
f 87//49 65//49 92//49
f 102//50 68//50 99//50
f 84//51 70//51 85//51
f 78//52 62//52 77//52
f 67//53 77//53 69//53
f 78//54 79//54 66//54
f 67//55 75//55 79//55
f 65//56 79//56 75//56
f 67//57 79//57 78//57
f 62//58 76//58 77//58
f 71//59 77//59 76//59
f 72//60 80//60 77//60
f 77//61 80//61 69//61
f 70//62 80//62 72//62
f 80//63 68//63 69//63
f 51//51 86//51 58//51
f 83//51 85//51 86//51
f 52//50 98//50 55//50
f 103//50 99//50 98//50
f 54//49 93//49 53//49
f 88//49 92//49 93//49
f 56//48 98//48 101//48
f 101//48 99//48 100//48
f 59//47 83//47 51//47
f 82//47 84//47 83//47
f 52//64 101//64 103//64
f 103//65 100//65 102//65
f 61//41 91//41 95//41
f 95//41 90//41 96//41
f 59//40 86//40 82//40
f 82//40 85//40 81//40
f 99//66 100//66 102//66
f 101//42 98//42 103//42
f 85//67 81//67 84//67
f 82//43 86//43 83//43
f 13//4 53//4 3//4
f 31//1 22//1 20//1
f 44//2 24//2 23//2
f 87//3 92//3 94//3
f 94//3 41//3 37//3
f 57//4 7//4 4//4
f 63//5 13//5 10//5
f 4//4 7//4 13//4
f 6//6 5//6 13//6
f 6//6 7//6 12//6
f 2//6 12//6 13//6
f 1//7 14//7 13//7
f 1//7 9//7 12//7
f 8//7 13//7 12//7
f 64//5 61//5 11//5
f 87//8 37//8 16//8
f 11//5 10//5 13//5
f 25//68 23//68 24//68
f 21//69 20//69 25//69
f 49//70 19//70 17//70
f 21//12 22//12 31//12
f 47//13 17//13 18//13
f 10//8 40//8 91//8
f 97//14 96//14 74//14
f 74//14 24//14 97//14
f 53//14 93//14 42//14
f 15//15 16//15 37//15
f 18//16 19//16 49//16
f 20//17 21//17 34//17
f 26//18 24//18 74//18
f 25//19 15//19 65//19
f 57//20 78//20 28//20
f 28//21 27//21 12//21
f 17//71 19//71 27//71
f 78//23 66//23 16//23
f 76//24 64//24 14//24
f 17//72 29//72 25//72
f 15//73 25//73 29//73
f 12//74 27//74 26//74
f 88//8 54//8 4//8
f 27//75 22//75 21//75
f 30//76 25//76 20//76
f 18//77 25//77 30//77
f 36//17 33//17 1//17
f 35//17 34//17 33//17
f 45//16 50//16 2//16
f 46//16 49//16 50//16
f 42//15 38//15 4//15
f 41//15 37//15 38//15
f 94//14 92//14 65//14
f 65//14 15//14 94//14
f 44//14 43//14 97//14
f 95//14 96//14 97//14
f 61//14 95//14 43//14
f 90//8 91//8 89//8
f 40//8 39//8 89//8
f 73//8 90//8 89//8
f 89//8 39//8 23//8
f 6//13 48//13 45//13
f 48//13 47//13 46//13
f 33//12 32//12 9//12
f 34//12 31//12 32//12
f 2//78 50//78 48//78
f 50//35 49//35 47//35
f 23//36 25//36 75//36
f 88//8 38//8 37//8
f 11//2 43//2 40//2
f 43//2 44//2 39//2
f 9//1 32//1 36//1
f 32//1 31//1 35//1
f 93//4 88//4 38//4
f 89//37 90//37 97//37
f 97//37 44//37 39//37
f 90//37 96//37 97//37
f 91//5 40//5 43//5
f 42//14 93//14 94//14
f 92//14 94//14 93//14
f 81//40 85//40 70//40
f 96//41 90//41 73//41
f 63//4 57//4 54//4
f 56//42 57//42 63//42
f 62//42 57//42 56//42
f 63//42 62//42 52//42
f 63//43 64//43 51//43
f 51//43 64//43 62//43
f 62//43 63//43 58//43
f 61//5 64//5 63//5
f 74//79 73//79 75//79
f 71//80 76//80 75//80
f 102//81 100//81 67//81
f 81//47 72//47 71//47
f 100//48 99//48 68//48
f 87//49 66//49 65//49
f 102//50 69//50 68//50
f 84//51 71//51 70//51
f 78//52 57//52 62//52
f 67//82 78//82 77//82
f 67//83 68//83 75//83
f 65//84 66//84 79//84
f 62//85 64//85 76//85
f 71//86 72//86 77//86
f 70//87 75//87 80//87
f 80//88 75//88 68//88
f 51//51 83//51 86//51
f 83//51 84//51 85//51
f 52//50 103//50 98//50
f 103//50 102//50 99//50
f 54//49 88//49 93//49
f 88//49 87//49 92//49
f 56//48 55//48 98//48
f 101//48 98//48 99//48
f 59//47 82//47 83//47
f 82//47 81//47 84//47
f 52//65 56//65 101//65
f 103//81 101//81 100//81
f 61//41 60//41 91//41
f 95//41 91//41 90//41
f 59//40 58//40 86//40
f 82//40 86//40 85//40
f 13//4 63//4 53//4
