# Blender v2.79 (sub 0) OBJ File: 'playerspaceship.blend'
# www.blender.org
o Wing.003_Cylinder.004
v 4.083281 2.288776 0.911960
v 0.328381 -0.280356 -1.811724
v 0.515288 0.230908 -0.141955
v 0.295121 -0.394392 -1.809855
v 0.270162 -0.532706 -1.124534
v 0.559475 0.285321 1.114595
v 0.458962 -0.108933 1.763903
v 0.541636 0.192213 1.529835
v 0.384859 -0.360572 1.736506
v 0.335870 -0.509058 1.486691
v 4.098958 2.824156 3.135460
v 4.092559 2.170340 0.912799
v 4.127129 2.028476 1.820372
v 4.137450 2.883956 4.803950
v 4.191473 2.476170 5.660041
v 4.159147 2.788337 5.353721
v 4.210874 2.214739 5.620055
v 4.214346 2.059864 5.286360
vn 0.9966 0.0779 -0.0258
vn -0.9597 0.2803 0.0216
vn -0.6570 -0.1614 0.7365
vn -0.6696 0.7303 0.1350
vn 0.6214 -0.7701 -0.1441
vn 0.1783 -0.8918 0.4158
vn -0.7706 0.5093 0.3832
vn 0.6576 -0.2037 -0.7253
vn 0.5566 -0.8308 -0.0065
vn -0.4385 0.8719 -0.2179
vn -0.5771 0.8165 -0.0151
vn -0.7526 0.1519 0.6407
vn -0.6772 0.7199 0.1519
vn 0.6187 -0.7742 -0.1337
vn 0.0856 -0.8637 0.4966
vn -0.7801 0.3952 0.4851
vn 0.5692 0.0388 -0.8213
vn -0.4422 0.8727 -0.2070
vn -0.5767 0.8168 -0.0160
s off
f 18//1 13//1 11//1
f 3//2 10//2 6//2
f 7//3 17//3 15//3
f 8//4 14//4 6//4
f 5//5 12//5 13//5
f 9//6 18//6 17//6
f 7//7 16//7 8//7
f 2//8 12//8 4//8
f 10//9 13//9 18//9
f 3//10 1//10 2//10
f 6//11 11//11 3//11
f 11//1 14//1 18//1
f 16//1 15//1 18//1
f 17//1 18//1 15//1
f 13//1 12//1 1//1
f 1//1 11//1 13//1
f 16//1 18//1 14//1
f 8//2 6//2 10//2
f 3//2 2//2 5//2
f 4//2 5//2 2//2
f 10//2 9//2 7//2
f 7//2 8//2 10//2
f 3//2 5//2 10//2
f 7//12 9//12 17//12
f 8//13 16//13 14//13
f 5//14 4//14 12//14
f 9//15 10//15 18//15
f 7//16 15//16 16//16
f 2//17 1//17 12//17
f 10//9 5//9 13//9
f 3//18 11//18 1//18
f 6//19 14//19 11//19
